<svg width="100" height="101" viewBox="0 0 100 101" fill="none" xmlns="http://www.w3.org/2000/svg">
<path d="M0.589036 73.5537C0.278683 73.7839 0.0725018 74.128 0.0158502 74.5103C-0.040802 74.8925 0.056716 75.2816 0.286951 75.592C0.517186 75.9024 0.861279 76.1085 1.24353 76.1652C1.62579 76.2218 2.01489 76.1243 2.32524 75.8941C2.32524 75.8941 2.32524 75.8941 2.32524 75.8941C6.3566 72.8942 10.634 70.059 14.663 66.886C14.6736 66.8777 14.6842 66.8695 14.6949 66.8613C18.5188 63.8814 22.6528 61.0473 26.0042 57.1458C26.021 57.1262 26.0378 57.1065 26.0546 57.0869C26.3477 56.7428 26.616 56.4247 26.9054 56.0768C31.2709 51.3258 34.6048 44.3325 35.0649 37.8556C35.0734 37.7963 35.0821 37.7368 35.0907 37.677C35.2343 36.5469 35.4397 35.2709 34.9668 33.7517C34.9399 33.6688 34.9113 33.5869 34.8822 33.5086C33.4341 29.9362 30.008 28.9288 27.4305 28.2627C27.3871 28.2523 27.3441 28.2421 27.3015 28.2321C24.7495 27.7157 22.064 27.4419 19.1939 29.3562C19.1422 29.3978 19.0894 29.4425 19.0385 29.4882C17.7286 30.7691 17.6828 32.0948 17.5787 33.1285C17.5173 34.1938 17.5976 35.1608 17.7057 36.1041C17.9294 37.9796 18.304 39.7563 18.6159 41.4751C18.6193 41.4939 18.6228 41.5127 18.6264 41.5314C19.7358 45.688 22.2366 47.8796 24.1849 50.5055C24.1945 50.5175 24.2041 50.5296 24.2138 50.5418C26.7855 53.7539 29.0563 57.1638 31.083 60.7567C31.0848 60.7599 31.0867 60.7631 31.0885 60.7664C33.0567 64.2441 34.5356 67.9238 35.3547 71.8158C35.3553 71.8187 35.3559 71.8215 35.3566 71.8244C36.5305 77.4361 36.9732 83.9069 35.4562 88.8876C35.4529 88.8958 35.4496 88.904 35.4463 88.9121C34.3833 91.3076 31.2798 93.4675 28.4407 95.3752C28.4338 95.3798 28.4269 95.3844 28.42 95.389C25.892 97.14 22.5743 97.0226 19.2545 96.0488C19.2477 96.0469 19.2408 96.0449 19.2339 96.043C19.146 96.0153 19.1169 95.9991 19.0484 95.9341C18.983 95.8697 18.8902 95.7359 18.8088 95.5362C18.6417 95.1358 18.5425 94.5283 18.5265 93.9005C18.5263 93.8918 18.5261 93.8832 18.5259 93.8746C18.7649 90.5243 22.8279 85.8635 24.9149 81.4654C24.9385 81.4211 24.962 81.3769 24.9854 81.3328C27.1404 77.2462 29.4612 73.2753 31.8363 69.2718C31.8543 69.2414 31.8724 69.2108 31.8907 69.18C34.8407 64.2324 37.8988 59.2696 40.6109 54.0651C40.6204 54.0469 40.6299 54.0287 40.6393 54.0105C43.996 47.3506 47.3155 40.6005 48.3308 32.6893C48.3309 32.6885 48.331 32.6876 48.331 32.6867C48.8999 26.3594 49.045 19.436 46.3994 13.2424C46.3962 13.2341 46.393 13.2257 46.3898 13.2174C45.2569 9.91952 42.6964 6.4324 40.1062 4.47133C40.0861 4.45282 40.0658 4.43441 40.0455 4.41611C37.7325 2.39291 34.9156 1.47283 31.9073 1.51561C31.8457 1.5178 31.7853 1.522 31.7241 1.52834C30.1286 1.79131 29.6967 2.71246 29.32 3.15889C29.3014 3.18506 29.283 3.21132 29.2648 3.23768C27.2373 6.76956 28.2598 9.79305 29.0571 12.5601C29.0778 12.6201 29.0995 12.6788 29.1223 12.7364C30.4346 15.2566 31.6577 15.9666 32.5952 17.4085C32.6235 17.4481 32.6524 17.4877 32.6817 17.5275C37.7735 23.4084 42.7732 28.1884 47.6377 33.6832C47.6542 33.7015 47.6708 33.7199 47.6874 33.7383C54.2649 41.1763 60.031 49.5347 65.9586 57.7449C65.9592 57.7456 65.9597 57.7464 65.9603 57.7471C69.3147 62.4937 72.6341 67.0983 74.3782 72.5182C74.3784 72.5189 74.3787 72.5196 74.3789 72.5203C75.4641 75.5698 74.7326 80.0512 72.794 82.838C72.7929 82.8394 72.7919 82.8409 72.7908 82.8423C71.2776 85.0638 68.8338 85.8964 65.6568 86.7464C65.6432 86.7504 65.6296 86.7543 65.616 86.7582C62.7968 87.5967 60.6264 87.2812 57.6226 85.8533C57.6064 85.8468 57.5898 85.8398 57.573 85.8323C55.3445 84.5729 53.8634 79.6386 52.9838 75.7863C52.9719 75.7334 52.9605 75.6799 52.9497 75.6257C52.454 72.9972 53.1761 69.804 53.9926 66.7389C54.0056 66.6909 54.0202 66.6388 54.0363 66.5828C56.293 60.0449 59.1583 53.1755 61.6519 46.4209C61.6678 46.3786 61.6837 46.3363 61.6996 46.294C63.9672 40.2533 66.4384 34.2773 68.7186 28.1429C68.7283 28.1167 68.7379 28.0905 68.7475 28.0643C71.1759 21.2879 73.2628 13.6716 71.2541 6.05623C71.2478 6.03167 71.2413 6.00719 71.2346 5.98278C69.8913 2.11877 66.6334 1.08386 63.9961 0.214819C63.9564 0.203538 63.9166 0.192738 63.8769 0.182412C61.684 -0.380033 59.7512 0.484646 58.4401 1.06641C58.3907 1.08811 58.342 1.11049 58.2938 1.13352C56.6415 1.94621 55.817 3.32474 55.2135 4.43421C55.1831 4.49136 55.1542 4.54937 55.1275 4.60607C54.2726 6.8985 54.6652 8.26185 54.7479 9.80385C54.7541 9.86439 54.7617 9.92462 54.7707 9.98445C55.1934 12.0102 56.2506 12.8148 57.0514 13.7005C57.8976 14.5433 58.743 15.2737 59.5852 16.0007C59.6115 16.0233 59.6379 16.0459 59.6643 16.0685C63.8785 19.6453 68.3281 22.7338 72.8134 25.7622C72.8287 25.7726 72.8441 25.7829 72.8594 25.7932C77.5888 28.9569 81.9972 32.3751 85.9108 36.4262C85.9118 36.4272 85.9127 36.4282 85.9136 36.4291C89.5881 40.3505 92.1628 46.155 93.447 51.4321C93.4475 51.4348 93.448 51.4375 93.4485 51.4402C93.8203 53.3623 93.7824 55.7267 93.2382 57.0736C93.2381 57.0737 93.2381 57.0739 93.238 57.074C93.0688 57.4551 92.8352 57.773 92.7669 57.8152C92.7668 57.8153 92.7667 57.8154 92.7666 57.8155C91.799 58.6382 88.7445 58.3309 86.3812 57.6664C86.3778 57.6655 86.3744 57.6646 86.371 57.6637C84.8023 57.3573 83.6552 55.1635 82.3105 52.8216C82.3024 52.8077 82.2943 52.7936 82.2862 52.7793C80.1976 48.2339 80.1657 41.6963 80.9777 36.1926C80.9805 36.1758 80.9833 36.159 80.9862 36.1421C81.2702 34.4575 81.8018 32.759 82.3908 31.0086C82.7356 29.9755 83.1059 28.9251 83.4244 27.7831C83.4278 27.7711 83.4311 27.759 83.4345 27.7469C84.3189 24.7387 86.3849 21.8386 88.5316 18.9781C88.5403 18.9664 88.549 18.9547 88.5576 18.943C90.3348 16.5673 92.0037 14.1068 93.9546 12.3829C93.9583 12.3797 93.9641 12.3747 93.9698 12.3696C95.5064 11.0422 97.0069 9.6061 98.4819 8.4195L98.4149 8.46576C98.4161 8.46488 98.4174 8.46399 98.4186 8.46311C98.8477 8.1532 98.9864 7.09511 99.3857 6.39364C99.4058 6.3569 99.4145 6.30024 99.4158 6.24843C99.4168 6.19591 99.4104 6.15251 99.3919 6.11547C99.3735 6.07844 99.3426 6.04726 99.3 6.01648C99.2578 5.98642 99.2073 5.95925 99.1659 5.95326C99.1659 5.95326 99.1659 5.95326 99.1659 5.95326C98.3865 5.83884 97.3461 5.37498 96.6722 5.78728C96.6704 5.78839 96.6686 5.7895 96.6667 5.79062L96.5997 5.83688C94.7997 7.09526 93.2424 8.37806 91.6746 9.70663C91.6688 9.71162 91.6629 9.71661 91.6571 9.72161C89.1397 11.9383 87.4734 14.467 85.6932 16.8233C85.6846 16.8349 85.676 16.8465 85.6674 16.8581C83.5167 19.7626 81.1975 22.8233 80.0098 26.7872C80.0052 26.8036 80.0007 26.82 79.9962 26.8364C79.7269 27.8094 79.3724 28.8362 79.0254 29.8872C78.433 31.6763 77.8436 33.555 77.5068 35.5562C77.5035 35.5763 77.5001 35.5963 77.4968 35.6163C76.6968 41.9166 76.3556 48.0221 79.2322 54.5168C79.2462 54.5415 79.2604 54.5661 79.2747 54.5906C80.566 56.5984 81.6632 59.9788 85.4405 61.0955C85.4476 61.0974 85.4547 61.0993 85.4617 61.1012C88.2637 61.6633 91.246 62.9327 94.9958 60.5993C94.9974 60.5981 94.999 60.5968 95.0005 60.5955C95.8131 59.9169 96.1681 59.2298 96.4816 58.5939C96.4817 58.5937 96.4818 58.5935 96.4819 58.5932C97.6066 55.689 97.4102 53.3045 97.0092 50.7818C97.0086 50.7784 97.008 50.7751 97.0074 50.7717C95.428 44.4466 93.0043 38.8188 88.5039 33.8847C88.5027 33.8835 88.5015 33.8823 88.5003 33.8811C84.4259 29.658 79.7066 26.0013 74.8836 22.7813C74.8679 22.7707 74.8522 22.7602 74.8365 22.7496C70.4098 19.7643 66.0082 16.7088 62.0193 13.3205C61.9944 13.2992 61.9696 13.2778 61.9449 13.2566C61.1262 12.5511 60.3164 11.8459 59.6126 11.1435C58.9133 10.4751 58.3228 9.62077 58.3499 9.4483C58.3491 9.44338 58.3486 9.43898 58.3482 9.43498C58.2001 8.15409 58.1865 6.54524 58.4012 6.14464C58.4036 6.13948 58.4055 6.13574 58.4067 6.13356C58.8694 5.24231 59.4093 4.60827 59.8565 4.41739C59.87 4.41104 59.8836 4.40495 59.8973 4.3991C61.2234 3.79172 62.2421 3.52419 62.9547 3.72851C62.9684 3.73208 62.9821 3.73582 62.9959 3.73972C65.1683 4.32499 67.4165 5.66516 67.6991 6.9485C67.7013 6.95671 67.7035 6.96494 67.7056 6.97317C69.4264 13.3417 67.6754 20.2964 65.3322 26.8149C65.323 26.8399 65.3139 26.865 65.3047 26.8901C63.0783 32.9118 60.6099 38.9289 58.3344 45.033C58.3184 45.0759 58.3024 45.1187 58.2864 45.1615C55.79 51.9827 53.0906 58.4726 50.6367 65.5995C50.6151 65.6739 50.5948 65.7464 50.5757 65.8173C49.7529 69.0502 48.8046 72.433 49.4792 76.3191C49.4955 76.4005 49.5127 76.4818 49.5309 76.5628C50.8007 80.7938 50.9082 85.5003 56.139 89.0582C56.1968 89.0839 56.2554 89.1086 56.3145 89.1322C58.9188 90.5234 63.3689 91.3109 66.5935 90.1434C66.6102 90.1386 66.6269 90.1337 66.6437 90.1288C69.4933 89.3929 73.559 88.1271 75.6813 84.9381C75.6828 84.9361 75.6843 84.9341 75.6857 84.9321C78.3938 80.7987 79.3312 76.1293 77.7672 71.2099C77.7667 71.2087 77.7663 71.2076 77.7659 71.2065C75.9042 65.4462 72.291 60.3934 68.9091 55.6186C68.9085 55.6179 68.908 55.6171 68.9074 55.6164C62.9865 47.4225 57.2301 39.049 50.3843 31.3044C50.3669 31.285 50.3494 31.2657 50.332 31.2465C45.5278 25.8286 40.047 20.4924 35.5965 15.379C35.5763 15.3516 35.5569 15.3249 35.5383 15.299C34.4622 13.7543 32.7818 12.1317 32.4795 11.4083C32.4762 11.3998 32.4735 11.3926 32.4716 11.3869C31.7125 9.2266 31.42 6.42269 32.2399 5.28824C32.2458 5.27958 32.2519 5.27105 32.258 5.26265C32.3584 5.12139 32.4512 5.02728 32.4684 5.02026C32.4924 5.00419 32.3728 5.12932 32.0967 5.16064C32.0755 5.16288 32.0545 5.16438 32.0332 5.16518C33.9645 5.12447 36.1737 5.8822 37.5724 7.15654C37.5851 7.16801 37.5977 7.17952 37.6103 7.19108C40.3217 9.36099 41.7922 11.5094 42.9363 14.535C42.9391 14.5423 42.9419 14.5496 42.9447 14.5569C45.3125 20.0632 45.2146 26.1936 44.6849 32.3451C44.6848 32.3459 44.6848 32.3468 44.6847 32.3476C43.8625 39.1101 40.6906 45.9193 37.4401 52.3563C37.431 52.3741 37.4218 52.3919 37.4126 52.4097C34.797 57.4742 31.836 62.4036 28.8741 67.3956C28.8556 67.4269 28.8373 67.4579 28.8191 67.4889C26.4546 71.4948 24.0901 75.5558 21.9064 79.6974C21.8827 79.742 21.859 79.7867 21.8352 79.8316C20.6867 82.0029 19.4561 84.0886 18.1556 86.2159C16.9748 88.3647 15.1096 90.4359 15.0403 93.9471C15.0407 93.9641 15.0411 93.9811 15.0416 93.9981C15.0725 94.889 15.1645 95.821 15.5607 96.8414C15.9146 97.8304 16.9164 99.0818 18.2762 99.4246C18.284 99.4268 18.2917 99.429 18.2994 99.4312C21.9186 100.525 26.7128 100.862 30.3661 98.3098C30.3732 98.3051 30.3802 98.3004 30.3873 98.2957C33.3291 96.2023 36.6654 94.3908 38.6855 90.23C38.6913 90.2158 38.697 90.2016 38.7027 90.1873C40.7014 83.4499 39.9859 77.3254 38.773 71.0731C38.7723 71.0702 38.7717 71.0672 38.771 71.0642C37.8878 66.8563 36.2427 62.7662 34.13 59.0463C34.128 59.0429 34.126 59.0394 34.1241 59.0359C32.0226 55.3119 29.6201 51.7125 26.9406 48.3694C26.9306 48.3568 26.9205 48.3443 26.9105 48.3317C24.9311 45.809 22.5641 43.1537 22.0493 40.8801C22.0476 40.871 22.0459 40.8619 22.0443 40.8529C21.7198 39.0737 21.3631 37.3566 21.1672 35.6978C21.0708 34.8728 21.0147 34.0567 21.0583 33.3438C21.0781 32.6361 21.3397 32.0434 21.367 32.0841C21.369 32.0824 21.3738 32.0782 21.3808 32.0725C22.3366 31.3668 24.6634 31.1628 26.5019 31.6426C26.5393 31.6513 26.5769 31.6602 26.6147 31.6693C28.9351 32.1963 31.114 33.2402 31.6083 34.7247C31.6221 34.7619 31.6346 34.7975 31.6459 34.8319C31.8318 35.3442 31.8185 36.2439 31.6866 37.1976C31.6786 37.2565 31.6705 37.3151 31.6624 37.3733C31.0943 43.8867 28.5882 49.034 24.3174 53.937C24.0396 54.2749 23.7813 54.5851 23.4981 54.9218C23.4831 54.9396 23.4681 54.9575 23.453 54.9753C20.4715 58.5059 16.7537 61.5682 12.9075 64.5598C12.897 64.5679 12.8866 64.576 12.8761 64.5841C8.91758 67.7025 4.71654 70.4844 0.589036 73.5537Z" fill="black"/>
</svg>
